<?xml version="1.0" encoding="utf-8"?>
<!-- Generator: Adobe Illustrator 19.2.1, SVG Export Plug-In . SVG Version: 6.00 Build 0)  -->
<svg version="1.1" id="Layer_1" xmlns="http://www.w3.org/2000/svg" xmlns:xlink="http://www.w3.org/1999/xlink" x="0px" y="0px"
	 viewBox="0 0 19 19" style="enable-background:new 0 0 19 19;" xml:space="preserve">
<style type="text/css">
	.st0{fill:#44C4E2;}
</style>
<g>
	<path class="st0" d="M17.9,9.6H8.6L12,7.5C12,7.5,15.1,8.2,17.9,9.6z"/>
	<path class="st0" d="M8.1,9.6"/>
	<path class="st0" d="M15.2,9.6c0,0-6.1,1.5-7.6,5.8c-0.5,1.3,0,3.7,0,3.7L5,19c0,0-0.5-6.7-1.2-7.5C2.9,10.4,2,10.1,1.1,9.6
		C3.4,9.6,15.2,9.6,15.2,9.6z"/>
	<path class="st0" d="M15.2,9.6c0,0-6.1-1.6-7.6-5.9C7.1,2.4,7.6,0,7.6,0L5,0c0,0-0.5,6.7-1.2,7.6C2.9,8.7,2,8.9,1.1,9.6
		C3.4,9.6,15.2,9.6,15.2,9.6z"/>
	<path class="st0" d="M17.9,9.6H8.6l3.5,2.1C12,11.7,15.1,10.8,17.9,9.6z"/>
	<path class="st0" d="M8.1,9.6"/>
	<path class="st0" d="M12,11.7c0,0-2.3,0-4.1-0.4C5.4,10.8,3.4,10,1.1,9.6c2.7,0,8.5,0,8.5,0L12,11.7z"/>
	<path class="st0" d="M12,7.5c0,0-2.3,0-4.1,0.4C5.4,8.4,3.4,9.1,1.1,9.6c2.7,0,8.7,0,8.7,0L12,7.5z"/>
	<path class="st0" d="M7.6,1H4.9C4.8,1,4.7,0.9,4.6,0.8L4.4,0.3C4.3,0.1,4.4,0,4.5,0H8c0.2,0,0.2,0.1,0.2,0.3L7.9,0.8
		C7.9,0.9,7.7,1,7.6,1z"/>
	<path class="st0" d="M7.6,18H4.9c-0.1,0-0.3,0.1-0.3,0.2l-0.2,0.5c-0.1,0.2,0,0.3,0.2,0.3H8c0.2,0,0.2-0.1,0.2-0.3l-0.2-0.5
		C7.9,18.1,7.7,18,7.6,18z"/>
	<path class="st0" d="M4.8,9.6H1.9c-0.1,0-0.2-0.1-0.2-0.2C1.8,9,2,8.4,2.2,8.1c0-0.1,0.1-0.1,0.2-0.1h2.4C4.9,7.9,5,8,5,8.1v1.3
		C5,9.5,4.9,9.6,4.8,9.6z"/>
	<path class="st0" d="M4.8,9.6H1.9c-0.1,0-0.2,0.1-0.2,0.2c0.1,0.3,0.2,0.9,0.4,1.3c0,0.1,0.1,0.1,0.2,0.1h2.4C4.9,11.2,5,11.2,5,11
		V9.8C5,9.7,4.9,9.6,4.8,9.6z"/>
</g>
</svg>
