<?xml version="1.0" encoding="utf-8"?>
<!-- Generator: Adobe Illustrator 19.2.1, SVG Export Plug-In . SVG Version: 6.00 Build 0)  -->
<svg version="1.1" id="Layer_1" xmlns="http://www.w3.org/2000/svg" xmlns:xlink="http://www.w3.org/1999/xlink" x="0px" y="0px"
	 viewBox="0 0 19 19" style="enable-background:new 0 0 19 19;" xml:space="preserve">
<style type="text/css">
	.st0{fill:#44C4E2;}
</style>
<path class="st0" d="M14.5,1.7c-0.4-0.2-3.1-0.6-3.1-0.6L9.5,0.5C8.6,0.7,4.6,1.4,4.2,1.8s-3.7,2-3.8,2.4c0,0.4,2.4,1.9,2.6,2.4
	c0.2,0.5,0.8,4.5,1,5C4.2,11.8,5,12.3,5,12.3l0.9,0.8l0.7,0.4l2.4,5.3l2.2-1.2c0,0,0-3.1,0-3.6c0-0.5,0-1,0-1l1.4-1.6l0.5-3.4
	c0,0,0.5,1.1,0.6,1.1c0.1,0.1,1.2-0.8,1.2-0.8s1-3.1,1.4-3.5c0.4-0.4,1.1-1.1,1.1-1.1S14.9,2,14.5,1.7z M9.8,17.6l-0.1-5.2l1,0.4
	l0.1,4.1L9.8,17.6z M12.3,10.7l-1.3,1l1.7-4.8L12.3,10.7z M12.1,6.2l-2.2,5.3H9.5l1.4-6.1L9.5,4.1L12.8,4L12.1,6.2z M14.6,7.3
	l-0.7,0.6L13.4,5l2-0.7L14.6,7.3z"/>
</svg>
