<?xml version="1.0" encoding="utf-8"?>
<!-- Generator: Adobe Illustrator 19.2.1, SVG Export Plug-In . SVG Version: 6.00 Build 0)  -->
<svg version="1.1" id="Layer_1" xmlns="http://www.w3.org/2000/svg" xmlns:xlink="http://www.w3.org/1999/xlink" x="0px" y="0px"
	 viewBox="0 0 18 18" style="enable-background:new 0 0 18 18;" xml:space="preserve">
<style type="text/css">
	.st0{fill:#44C4E2;}
</style>
<g>
	<path class="st0" d="M7.4,7.6c-0.5,0-0.9,0.5-0.9,1s0.4,1,0.9,1c0.5,0,0.9-0.4,0.9-1C8.3,8,7.9,7.6,7.4,7.6z M10.7,7.6
		c-0.5,0-0.9,0.5-0.9,1s0.4,1,0.9,1c0.5,0,0.9-0.4,0.9-1S11.2,7.6,10.7,7.6z"/>
	<path class="st0" d="M15,0H3C2,0,1.1,0.8,1.1,1.9V14c0,1,0.8,1.9,1.8,1.9h10.2l-0.5-1.7l1.2,1.1l1.1,1l1.9,1.7V1.9
		C16.9,0.8,16,0,15,0z M11.6,11.8c0,0-0.3-0.4-0.6-0.7c1.2-0.3,1.6-1.1,1.6-1.1c-0.4,0.2-0.7,0.4-1,0.5c-0.4,0.2-0.9,0.3-1.3,0.4
		c-0.9,0.2-1.7,0.1-2.3,0c-0.5-0.1-1-0.2-1.3-0.4c-0.2-0.1-0.4-0.2-0.7-0.3c0,0-0.1,0-0.1,0c0,0,0,0,0,0C5.7,10,5.6,9.9,5.6,9.9
		S6,10.7,7.1,11c-0.3,0.3-0.6,0.7-0.6,0.7c-2-0.1-2.7-1.4-2.7-1.4c0-2.9,1.3-5.2,1.3-5.2c1.3-1,2.5-0.9,2.5-0.9l0.1,0.1
		C6.1,4.8,5.3,5.5,5.3,5.5s0.2-0.1,0.5-0.3c1-0.4,1.7-0.5,2-0.6c0.1,0,0.1,0,0.2,0c0.5-0.1,1.2-0.1,1.8,0c0.9,0.1,1.8,0.4,2.7,0.9
		c0,0-0.7-0.7-2.2-1.1l0.1-0.1c0,0,1.2,0,2.5,0.9c0,0,1.3,2.3,1.3,5.2C14.3,10.4,13.5,11.7,11.6,11.8z"/>
</g>
</svg>
