<?xml version="1.0" encoding="utf-8"?>
<!-- Generator: Adobe Illustrator 19.2.1, SVG Export Plug-In . SVG Version: 6.00 Build 0)  -->
<svg version="1.1" id="Layer_1" xmlns="http://www.w3.org/2000/svg" xmlns:xlink="http://www.w3.org/1999/xlink" x="0px" y="0px"
	 viewBox="0 0 18 18" style="enable-background:new 0 0 18 18;" xml:space="preserve">
<style type="text/css">
	.st0{fill:#44C4E2;}
</style>
<path class="st0" d="M9,0C4,0,0,4,0,9s4,9,9,9s9-4,9-9S14,0,9,0z M13.4,6.2l-1.5,7c-0.1,0.5-0.4,0.6-0.8,0.4l-2.2-1.7l-1.1,1
	c-0.1,0.1-0.2,0.2-0.5,0.2l0.2-2.3l4.2-3.8c0.2-0.2,0-0.2-0.3-0.1l-5.2,3.2L4,9.5C3.5,9.4,3.5,9,4.1,8.8l8.7-3.3
	C13.2,5.3,13.6,5.6,13.4,6.2z"/>
</svg>
