<?xml version="1.0" encoding="utf-8"?>
<!-- Generator: Adobe Illustrator 19.2.1, SVG Export Plug-In . SVG Version: 6.00 Build 0)  -->
<svg version="1.1" id="Layer_1" xmlns="http://www.w3.org/2000/svg" xmlns:xlink="http://www.w3.org/1999/xlink" x="0px" y="0px"
	 viewBox="0 0 19 19" style="enable-background:new 0 0 19 19;" xml:space="preserve">
<style type="text/css">
	.st0{fill:#44C4E2;}
</style>
<g>
	<g>
		<g>
			<path class="st0" d="M11.275,9.26c-0.083,0-0.15-0.067-0.15-0.15V6.881c0-0.083,0.067-0.15,0.15-0.15h1.186
				c0.083,0,0.15,0.067,0.15,0.15V9.11c0,0.083-0.067,0.15-0.15,0.15H11.275z"/>
			<path class="st0" d="M12.461,6.881V9.11h-1.185V6.881H12.461 M12.461,6.581h-1.185c-0.166,0-0.3,0.134-0.3,0.3V9.11
				c0,0.166,0.134,0.3,0.3,0.3h1.185c0.166,0,0.3-0.134,0.3-0.3V6.881C12.761,6.716,12.627,6.581,12.461,6.581L12.461,6.581z"/>
		</g>
	</g>
	<g>
		<g>
			<path class="st0" d="M8.91,11.905c-0.083,0-0.15-0.067-0.15-0.15V5.833c0-0.083,0.067-0.15,0.15-0.15h1.185
				c0.083,0,0.15,0.067,0.15,0.15v5.922c0,0.083-0.067,0.15-0.15,0.15H8.91z"/>
			<path class="st0" d="M10.095,5.833v5.922H8.91V5.833H10.095 M10.095,5.533H8.91c-0.166,0-0.3,0.134-0.3,0.3v5.922
				c0,0.166,0.134,0.3,0.3,0.3h1.185c0.166,0,0.3-0.134,0.3-0.3V5.833C10.395,5.667,10.261,5.533,10.095,5.533L10.095,5.533z"/>
		</g>
	</g>
	<g>
		<g>
			<path class="st0" d="M6.539,12.728c-0.083,0-0.15-0.067-0.15-0.15V9.979c0-0.083,0.067-0.15,0.15-0.15H7.81
				c0.083,0,0.15,0.067,0.15,0.15v2.598c0,0.083-0.067,0.15-0.15,0.15H6.539z"/>
			<path class="st0" d="M7.809,9.979v2.597h-1.27V9.979H7.809 M7.809,9.679h-1.27c-0.166,0-0.3,0.134-0.3,0.3v2.597
				c0,0.166,0.134,0.3,0.3,0.3h1.27c0.166,0,0.3-0.134,0.3-0.3V9.979C8.109,9.814,7.975,9.679,7.809,9.679L7.809,9.679z"/>
		</g>
	</g>
	<g>
		<g>
			<g>
				<path class="st0" d="M2.969,8.727c-0.034,0-0.067-0.011-0.095-0.033C2.833,8.66,2.813,8.608,2.82,8.556
					c0.411-2.944,2.733-5.29,5.663-5.734l0.885-2.442C9.39,0.319,9.447,0.28,9.509,0.28c0.008,0,0.017,0,0.026,0.002
					C9.607,0.295,9.659,0.357,9.659,0.43v3.093c0,0.083-0.067,0.15-0.15,0.15c-2.772,0-5.175,1.971-5.713,4.687
					C3.786,8.412,3.75,8.454,3.7,8.472L3.02,8.718C3.003,8.724,2.986,8.727,2.969,8.727z"/>
				<path class="st0" d="M9.509,0.43v3.093c-2.895,0-5.318,2.068-5.861,4.808l-0.68,0.246c0.406-2.909,2.711-5.218,5.625-5.62
					L9.509,0.43 M9.509,0.13c-0.124,0-0.238,0.077-0.282,0.198L8.372,2.687c-2.953,0.487-5.284,2.868-5.7,5.848
					C2.657,8.639,2.698,8.744,2.78,8.81c0.054,0.044,0.121,0.067,0.189,0.067c0.034,0,0.069-0.006,0.102-0.018l0.68-0.246
					C3.85,8.578,3.923,8.493,3.943,8.39c0.525-2.646,2.866-4.566,5.566-4.566c0.166,0,0.3-0.134,0.3-0.3V0.43
					c0-0.146-0.105-0.27-0.248-0.295C9.544,0.132,9.526,0.13,9.509,0.13L9.509,0.13z"/>
			</g>
		</g>
		<g>
			<g>
				<path class="st0" d="M15.47,9.652c-0.083,0-0.15-0.067-0.15-0.15c0-2.772-1.971-5.175-4.687-5.714
					c-0.052-0.01-0.094-0.046-0.111-0.096l-0.246-0.68c-0.019-0.05-0.009-0.105,0.024-0.146c0.028-0.036,0.071-0.056,0.116-0.056
					c0.007,0,0.014,0,0.021,0.001c2.945,0.411,5.291,2.733,5.735,5.663l2.441,0.885c0.068,0.025,0.109,0.095,0.097,0.167
					s-0.074,0.124-0.147,0.124H15.47z"/>
				<path class="st0" d="M10.416,2.962c2.909,0.406,5.218,2.711,5.62,5.625l2.527,0.916h-3.093c0-2.895-2.068-5.318-4.808-5.861
					L10.416,2.962 M10.416,2.662c-0.09,0-0.176,0.04-0.233,0.111c-0.066,0.082-0.085,0.192-0.049,0.291l0.246,0.68
					c0.036,0.099,0.121,0.172,0.224,0.192c2.646,0.525,4.566,2.866,4.566,5.566c0,0.166,0.134,0.3,0.3,0.3h3.093
					c0.146,0,0.27-0.105,0.295-0.248c0.025-0.143-0.056-0.284-0.193-0.334l-2.359-0.855c-0.487-2.953-2.868-5.284-5.848-5.7
					C10.444,2.663,10.43,2.662,10.416,2.662L10.416,2.662z"/>
			</g>
		</g>
		<g>
			<g>
				<path class="st0" d="M9.469,18.717c-0.072-0.013-0.124-0.074-0.124-0.147v-3.093c0-0.083,0.067-0.15,0.15-0.15
					c2.772,0,5.175-1.971,5.713-4.687c0.011-0.052,0.047-0.094,0.097-0.111l0.681-0.246c0.017-0.007,0.033-0.01,0.051-0.01
					c0.034,0,0.067,0.012,0.095,0.034c0.041,0.033,0.062,0.085,0.054,0.137c-0.411,2.945-2.733,5.291-5.663,5.735L9.636,18.62
					c-0.022,0.061-0.079,0.1-0.141,0.1C9.487,18.72,9.478,18.719,9.469,18.717z"/>
				<path class="st0" d="M16.036,10.423c-0.406,2.909-2.711,5.218-5.625,5.62L9.495,18.57v-3.093c2.895,0,5.318-2.068,5.861-4.808
					L16.036,10.423 M16.036,10.123c-0.034,0-0.069,0.006-0.102,0.018l-0.68,0.246c-0.099,0.036-0.172,0.121-0.192,0.224
					c-0.525,2.646-2.866,4.566-5.566,4.566c-0.166,0-0.3,0.134-0.3,0.3v3.093c0,0.146,0.105,0.27,0.248,0.295
					c0.017,0.003,0.035,0.005,0.052,0.005c0.124,0,0.238-0.077,0.282-0.198l0.855-2.359c2.953-0.487,5.284-2.868,5.7-5.848
					c0.015-0.104-0.026-0.208-0.108-0.274C16.171,10.146,16.104,10.123,16.036,10.123L16.036,10.123z M16.036,10.723h0.005H16.036
					L16.036,10.723z"/>
			</g>
		</g>
		<g>
			<g>
				<path class="st0" d="M8.563,16.191c-2.944-0.411-5.291-2.733-5.735-5.662L0.386,9.644C0.318,9.619,0.277,9.548,0.29,9.477
					c0.013-0.072,0.075-0.124,0.148-0.124h3.093c0.083,0,0.15,0.067,0.15,0.15c0,2.772,1.971,5.175,4.687,5.713
					c0.051,0.011,0.094,0.047,0.112,0.097l0.246,0.68c0.018,0.049,0.008,0.104-0.024,0.146c-0.029,0.035-0.072,0.056-0.117,0.056
					C8.577,16.193,8.57,16.192,8.563,16.191z"/>
				<path class="st0" d="M3.531,9.502c0,2.895,2.068,5.318,4.808,5.861l0.246,0.68c-2.909-0.406-5.218-2.711-5.62-5.625L0.437,9.502
					H3.531 M3.531,9.202H0.437c-0.146,0-0.27,0.105-0.295,0.248C0.117,9.594,0.198,9.735,0.335,9.784l2.359,0.855
					c0.487,2.953,2.868,5.284,5.848,5.7c0.014,0.002,0.028,0.003,0.042,0.003c0.09,0,0.176-0.04,0.233-0.111
					c0.066-0.082,0.085-0.192,0.049-0.291l-0.246-0.68c-0.036-0.099-0.121-0.172-0.224-0.192c-2.646-0.525-4.566-2.866-4.566-5.566
					C3.831,9.337,3.696,9.202,3.531,9.202L3.531,9.202z"/>
			</g>
		</g>
	</g>
	<g>
		<g>
			<g>
				<path class="st0" d="M2.969,8.727c-0.034,0-0.067-0.011-0.095-0.033C2.833,8.66,2.813,8.608,2.82,8.556
					c0.411-2.944,2.733-5.29,5.663-5.734l0.885-2.442C9.39,0.319,9.447,0.28,9.509,0.28c0.008,0,0.017,0,0.026,0.002
					C9.607,0.295,9.659,0.357,9.659,0.43v3.093c0,0.083-0.067,0.15-0.15,0.15c-2.772,0-5.175,1.971-5.713,4.687
					C3.786,8.412,3.75,8.454,3.7,8.472L3.02,8.718C3.003,8.724,2.986,8.727,2.969,8.727z"/>
				<path class="st0" d="M9.509,0.43v3.093c-2.895,0-5.318,2.068-5.861,4.808l-0.68,0.246c0.406-2.909,2.711-5.218,5.625-5.62
					L9.509,0.43 M9.509,0.13c-0.124,0-0.238,0.077-0.282,0.198L8.372,2.687c-2.953,0.487-5.284,2.868-5.7,5.848
					C2.657,8.639,2.698,8.744,2.78,8.81c0.054,0.044,0.121,0.067,0.189,0.067c0.034,0,0.069-0.006,0.102-0.018l0.68-0.246
					C3.85,8.578,3.923,8.493,3.943,8.39c0.525-2.646,2.866-4.566,5.566-4.566c0.166,0,0.3-0.134,0.3-0.3V0.43
					c0-0.146-0.105-0.27-0.248-0.295C9.544,0.132,9.526,0.13,9.509,0.13L9.509,0.13z"/>
			</g>
		</g>
		<g>
			<g>
				<path class="st0" d="M15.47,9.652c-0.083,0-0.15-0.067-0.15-0.15c0-2.772-1.971-5.175-4.687-5.714
					c-0.052-0.01-0.094-0.046-0.111-0.096l-0.246-0.68c-0.019-0.05-0.009-0.105,0.024-0.146c0.028-0.036,0.071-0.056,0.116-0.056
					c0.007,0,0.014,0,0.021,0.001c2.945,0.411,5.291,2.733,5.735,5.663l2.441,0.885c0.068,0.025,0.109,0.095,0.097,0.167
					s-0.074,0.124-0.147,0.124H15.47z"/>
				<path class="st0" d="M10.416,2.962c2.909,0.406,5.218,2.711,5.62,5.625l2.527,0.916h-3.093c0-2.895-2.068-5.318-4.808-5.861
					L10.416,2.962 M10.416,2.662c-0.09,0-0.176,0.04-0.233,0.111c-0.066,0.082-0.085,0.192-0.049,0.291l0.246,0.68
					c0.036,0.099,0.121,0.172,0.224,0.192c2.646,0.525,4.566,2.866,4.566,5.566c0,0.166,0.134,0.3,0.3,0.3h3.093
					c0.146,0,0.27-0.105,0.295-0.248c0.025-0.143-0.056-0.284-0.193-0.334l-2.359-0.855c-0.487-2.953-2.868-5.284-5.848-5.7
					C10.444,2.663,10.43,2.662,10.416,2.662L10.416,2.662z"/>
			</g>
		</g>
		<g>
			<g>
				<path class="st0" d="M9.469,18.717c-0.072-0.013-0.124-0.074-0.124-0.147v-3.093c0-0.083,0.067-0.15,0.15-0.15
					c2.772,0,5.175-1.971,5.713-4.687c0.011-0.052,0.047-0.094,0.097-0.111l0.681-0.246c0.017-0.007,0.033-0.01,0.051-0.01
					c0.034,0,0.067,0.012,0.095,0.034c0.041,0.033,0.062,0.085,0.054,0.137c-0.411,2.945-2.733,5.291-5.663,5.735L9.636,18.62
					c-0.022,0.061-0.079,0.1-0.141,0.1C9.487,18.72,9.478,18.719,9.469,18.717z"/>
				<path class="st0" d="M16.036,10.423c-0.406,2.909-2.711,5.218-5.625,5.62L9.495,18.57v-3.093c2.895,0,5.318-2.068,5.861-4.808
					L16.036,10.423 M16.036,10.123c-0.034,0-0.069,0.006-0.102,0.018l-0.68,0.246c-0.099,0.036-0.172,0.121-0.192,0.224
					c-0.525,2.646-2.866,4.566-5.566,4.566c-0.166,0-0.3,0.134-0.3,0.3v3.093c0,0.146,0.105,0.27,0.248,0.295
					c0.017,0.003,0.035,0.005,0.052,0.005c0.124,0,0.238-0.077,0.282-0.198l0.855-2.359c2.953-0.487,5.284-2.868,5.7-5.848
					c0.015-0.104-0.026-0.208-0.108-0.274C16.171,10.146,16.104,10.123,16.036,10.123L16.036,10.123z M16.036,10.723h0.005H16.036
					L16.036,10.723z"/>
			</g>
		</g>
		<g>
			<g>
				<path class="st0" d="M8.563,16.191c-2.944-0.411-5.291-2.733-5.735-5.662L0.386,9.644C0.318,9.619,0.277,9.548,0.29,9.477
					c0.013-0.072,0.075-0.124,0.148-0.124h3.093c0.083,0,0.15,0.067,0.15,0.15c0,2.772,1.971,5.175,4.687,5.713
					c0.051,0.011,0.094,0.047,0.112,0.097l0.246,0.68c0.018,0.049,0.008,0.104-0.024,0.146c-0.029,0.035-0.072,0.056-0.117,0.056
					C8.577,16.193,8.57,16.192,8.563,16.191z"/>
				<path class="st0" d="M3.531,9.502c0,2.895,2.068,5.318,4.808,5.861l0.246,0.68c-2.909-0.406-5.218-2.711-5.62-5.625L0.437,9.502
					H3.531 M3.531,9.202H0.437c-0.146,0-0.27,0.105-0.295,0.248C0.117,9.594,0.198,9.735,0.335,9.784l2.359,0.855
					c0.487,2.953,2.868,5.284,5.848,5.7c0.014,0.002,0.028,0.003,0.042,0.003c0.09,0,0.176-0.04,0.233-0.111
					c0.066-0.082,0.085-0.192,0.049-0.291l-0.246-0.68c-0.036-0.099-0.121-0.172-0.224-0.192c-2.646-0.525-4.566-2.866-4.566-5.566
					C3.831,9.337,3.696,9.202,3.531,9.202L3.531,9.202z"/>
			</g>
		</g>
	</g>
</g>
</svg>
