<?xml version="1.0" encoding="utf-8"?>
<!-- Generator: Adobe Illustrator 19.2.1, SVG Export Plug-In . SVG Version: 6.00 Build 0)  -->
<svg version="1.1" id="mech" xmlns="http://www.w3.org/2000/svg" xmlns:xlink="http://www.w3.org/1999/xlink" x="0px" y="0px"
	 viewBox="0 0 19 19" style="enable-background:new 0 0 19 19;" xml:space="preserve">
<style type="text/css">
	.st0{fill:#44C4E2;}
	.st1{fill:#7F7F7F;}
	.st2{fill:#ADADAD;stroke:#44C4E2;stroke-width:40;stroke-linejoin:round;stroke-miterlimit:10;}
	.st3{fill:#A1A1A1;}
</style>
<g id="New_Symbol">
</g>
<g>
	<path class="st0" d="M9.5,0.806c1.174,0,2.313,0.23,3.384,0.683c1.035,0.438,1.965,1.065,2.764,1.864
		c0.799,0.799,1.426,1.729,1.864,2.764c0.453,1.071,0.683,2.21,0.683,3.384c0,1.237-0.254,2.432-0.756,3.552
		c-0.241,0.537-0.538,1.053-0.884,1.531c-0.343,0.475-0.736,0.917-1.167,1.315c-1.608,1.481-3.699,2.296-5.887,2.296
		c-2.188,0-4.279-0.816-5.888-2.297c-0.431-0.397-0.824-0.84-1.167-1.315c-0.346-0.479-0.643-0.994-0.884-1.531
		C1.06,11.932,0.806,10.737,0.806,9.5c0-1.174,0.23-2.313,0.683-3.384c0.438-1.035,1.065-1.965,1.864-2.764
		c0.799-0.799,1.729-1.426,2.764-1.864C7.187,1.036,8.326,0.806,9.5,0.806 M9.5,0.01c-5.241,0-9.49,4.249-9.49,9.49
		c0,2.762,1.18,5.249,3.064,6.983c1.69,1.557,3.947,2.507,6.427,2.507c2.479,0,4.736-0.95,6.426-2.507
		c1.884-1.734,3.064-4.221,3.064-6.983C18.99,4.259,14.741,0.01,9.5,0.01L9.5,0.01z"/>
	<path class="st0" d="M9.5,19c-2.391,0-4.676-0.891-6.433-2.51c-0.957-0.881-1.711-1.927-2.24-3.109C0.278,12.157,0,10.852,0,9.5
		c0-1.282,0.251-2.527,0.747-3.698c0.478-1.131,1.163-2.147,2.036-3.02s1.888-1.557,3.02-2.036C6.973,0.251,8.218,0,9.5,0
		s2.527,0.251,3.698,0.747c1.131,0.478,2.147,1.163,3.02,2.036s1.557,1.888,2.036,3.02C18.749,6.973,19,8.218,19,9.5
		c0,1.352-0.278,2.658-0.827,3.881c-0.53,1.182-1.284,2.228-2.241,3.109C14.175,18.109,11.891,19,9.5,19z M9.5,0.02
		c-1.28,0-2.521,0.251-3.69,0.745C4.681,1.242,3.667,1.926,2.797,2.797S1.242,4.681,0.765,5.81C0.271,6.979,0.02,8.22,0.02,9.5
		c0,1.349,0.277,2.652,0.825,3.873c0.529,1.18,1.281,2.223,2.236,3.103c1.754,1.615,4.034,2.505,6.42,2.505
		c2.386,0,4.666-0.889,6.419-2.504c0.955-0.879,1.707-1.923,2.236-3.103c0.547-1.221,0.825-2.524,0.825-3.873
		c0-1.28-0.251-2.521-0.745-3.69c-0.477-1.129-1.161-2.143-2.032-3.013c-0.871-0.871-1.884-1.554-3.013-2.032
		C12.021,0.271,10.78,0.02,9.5,0.02z M9.5,18.204c-2.191,0-4.284-0.817-5.894-2.3c-0.432-0.398-0.825-0.84-1.168-1.316
		c-0.346-0.479-0.644-0.995-0.885-1.533C1.05,11.935,0.796,10.739,0.796,9.5c0-1.175,0.23-2.315,0.684-3.388
		c0.438-1.036,1.066-1.967,1.866-2.767c0.8-0.8,1.731-1.427,2.767-1.866C7.185,1.026,8.325,0.796,9.5,0.796s2.315,0.23,3.388,0.684
		c1.036,0.438,1.967,1.066,2.767,1.866c0.8,0.8,1.427,1.731,1.866,2.767c0.454,1.073,0.684,2.212,0.684,3.388
		c0,1.239-0.255,2.435-0.757,3.556c-0.241,0.538-0.539,1.054-0.885,1.533c-0.343,0.476-0.737,0.918-1.169,1.316
		C13.784,17.388,11.691,18.204,9.5,18.204z M9.5,0.816c-1.173,0-2.31,0.23-3.38,0.682C5.086,1.935,4.157,2.561,3.359,3.359
		C2.561,4.157,1.935,5.086,1.498,6.12C1.045,7.19,0.816,8.327,0.816,9.5c0,1.236,0.254,2.429,0.755,3.547
		c0.241,0.537,0.538,1.051,0.883,1.53c0.343,0.474,0.735,0.916,1.166,1.313c1.607,1.479,3.695,2.294,5.881,2.294
		c2.186,0,4.274-0.815,5.88-2.294c0.431-0.397,0.823-0.839,1.166-1.313c0.345-0.478,0.642-0.993,0.883-1.53
		c0.501-1.118,0.755-2.312,0.755-3.548c0-1.173-0.229-2.31-0.682-3.38c-0.437-1.034-1.064-1.963-1.861-2.761
		c-0.798-0.798-1.727-1.424-2.761-1.861C11.81,1.045,10.673,0.816,9.5,0.816z"/>
</g>
<path class="st0" d="M12.466,14.154c0.029,0,0.055,0.028,0.076,0.048l2.208,2.22c-1.505,1.142-3.34,1.767-5.25,1.767
	c-1.909,0-3.745-0.619-5.25-1.761l2.207-2.227c0.02-0.02,0.047-0.047,0.076-0.047h5.947 M12.466,13.393H6.533
	c-0.24,0-0.469,0.095-0.639,0.264l-2.821,2.825C4.764,18.04,7.021,18.99,9.5,18.99c2.479,0,4.736-0.95,6.426-2.507l-2.821-2.826
	C12.936,13.488,12.706,13.393,12.466,13.393L12.466,13.393z"/>
<path class="st0" d="M9.5,0.806c1.909,0,3.745,0.621,5.25,1.763l-2.195,2.228c-0.029,0.029-0.067,0.074-0.107,0.074H6.596
	c-0.069,0-0.134-0.056-0.183-0.105L4.25,2.584C5.755,1.441,7.591,0.806,9.5,0.806 M9.5,0.01c-2.479,0-4.736,0.951-6.427,2.507
	L5.85,5.31c0.198,0.198,0.466,0.321,0.747,0.321h5.851c0.252,0,0.493-0.112,0.671-0.29l2.808-2.819
	C14.236,0.966,11.979,0.01,9.5,0.01L9.5,0.01z"/>
<g>
	<line class="st1" x1="9.436" y1="14.002" x2="9.436" y2="18.72"/>
	<rect x="9.132" y="14.002" class="st0" width="0.761" height="4.718"/>
</g>
<rect x="6.544" y="14.002" class="st0" width="0.761" height="4.414"/>
<rect x="11.719" y="14.002" class="st0" width="0.761" height="4.414"/>
<g>
	<path class="st2" d="M6.164,11.965"/>
</g>
<g>
	<path class="st2" d="M6.164,13.392"/>
</g>
<g>
	<path class="st2" d="M12.836,11.965"/>
</g>
<g>
	<path class="st2" d="M12.836,13.392"/>
</g>
<g>
	<path class="st2" d="M6.164,5.608"/>
</g>
<g>
	<path class="st2" d="M12.836,5.608"/>
</g>
<rect x="16.604" y="11.07" transform="matrix(0.7071 -0.7071 0.7071 0.7071 -3.7142 15.6232)" class="st0" width="0.796" height="2.449"/>
<g>
	
		<rect x="0.774" y="11.897" transform="matrix(0.7071 -0.7071 0.7071 0.7071 -8.1087 5.0141)" class="st0" width="2.449" height="0.796"/>
</g>
<g>
	<path class="st0" d="M4.665,2.206L3.717,2.392c0,0-0.721,1.103-0.602,1.103c0.012,0,0.032-0.011,0.062-0.035
		c0.079-0.063,0.196-0.093,0.325-0.093c0.237,0,0.517,0.099,0.691,0.272c0.056,0.056,0.124,0.079,0.195,0.079
		c0.272,0,0.588-0.342,0.404-0.511C4.56,2.994,4.261,2.491,4.665,2.206L4.665,2.206z"/>
</g>
<g>
	<path class="st0" d="M14.33,2.206c0.405,0.284,0.105,0.788-0.127,1.001s0.33,0.701,0.599,0.432s0.794-0.358,1.016-0.179
		c0.333,0.267-0.54-1.068-0.54-1.068L14.33,2.206z"/>
	<path class="st0" d="M14.607,3.728c-0.034,0-0.069-0.005-0.106-0.015c-0.167-0.047-0.323-0.192-0.356-0.331
		C14.128,3.31,14.146,3.247,14.197,3.2c0.166-0.153,0.337-0.424,0.322-0.659c-0.009-0.132-0.074-0.242-0.194-0.326l-0.038-0.027
		l0.998,0.195l0.002,0.004c0.002,0.003,0.172,0.263,0.331,0.527c0.327,0.542,0.292,0.573,0.278,0.586
		c-0.014,0.013-0.039,0.004-0.084-0.032c-0.222-0.178-0.738-0.087-1.003,0.179C14.755,3.7,14.685,3.728,14.607,3.728z M14.37,2.224
		c0.103,0.084,0.16,0.19,0.168,0.315c0.016,0.242-0.159,0.519-0.328,0.675c-0.045,0.042-0.061,0.098-0.046,0.162
		c0.031,0.13,0.184,0.272,0.342,0.316c0.114,0.032,0.217,0.011,0.289-0.061c0.271-0.271,0.8-0.364,1.03-0.18
		c0.048,0.038,0.058,0.033,0.058,0.033c0.03-0.028-0.19-0.441-0.61-1.084L14.37,2.224z"/>
</g>
<g>
	<g>
		<path class="st0" d="M17.056,5.082c0.279,0.408,0.108,0.94-0.235,1.278c-0.224,0.221,0.133,0.914,0.403,0.646
			c0.211-0.209,0.484-0.356,0.629-0.111c0.218,0.367-0.13-1.19-0.13-1.19L17.056,5.082z"/>
	</g>
	<g>
		<path class="st0" d="M1.945,5.082c-0.279,0.408-0.1,0.94,0.243,1.278c0.224,0.221-0.133,0.914-0.403,0.646
			C1.574,6.798,1.301,6.651,1.155,6.896c-0.218,0.367,0.13-1.19,0.13-1.19L1.945,5.082z"/>
	</g>
</g>
<g>
	<g>
		<path class="st0" d="M17.056,5.082c0.279,0.408,0.108,0.94-0.235,1.278c-0.224,0.221,0.133,0.914,0.403,0.646
			c0.211-0.209,0.484-0.356,0.629-0.111c0.218,0.367-0.13-1.19-0.13-1.19L17.056,5.082z"/>
	</g>
	<g>
		<path class="st0" d="M1.945,5.082c-0.279,0.408-0.1,0.94,0.243,1.278c0.224,0.221-0.133,0.914-0.403,0.646
			C1.574,6.798,1.301,6.651,1.155,6.896c-0.218,0.367,0.13-1.19,0.13-1.19L1.945,5.082z"/>
	</g>
</g>
<g>
	<g>
		<path class="st0" d="M17.056,13.926c0.279-0.408,0.108-0.94-0.235-1.278c-0.224-0.221,0.133-0.914,0.403-0.646
			c0.211,0.209,0.484,0.356,0.629,0.111c0.218-0.367-0.13,1.19-0.13,1.19L17.056,13.926z"/>
	</g>
	<g>
		<path class="st0" d="M1.945,13.926c-0.279-0.408-0.1-0.94,0.243-1.278c0.224-0.221-0.133-0.914-0.403-0.646
			c-0.211,0.209-0.484,0.356-0.629,0.111c-0.218-0.367,0.13,1.19,0.13,1.19L1.945,13.926z"/>
	</g>
</g>
<g>
	<g>
		<path class="st0" d="M17.056,13.926c0.279-0.408,0.108-0.94-0.235-1.278c-0.224-0.221,0.133-0.914,0.403-0.646
			c0.211,0.209,0.484,0.356,0.629,0.111c0.218-0.367-0.13,1.19-0.13,1.19L17.056,13.926z"/>
		<path class="st3" d="M16.997,13.994l0.051-0.074c0.203-0.298,0.217-0.821-0.234-1.265c-0.073-0.072-0.093-0.2-0.054-0.349
			c0.041-0.155,0.151-0.331,0.284-0.368c0.067-0.018,0.131,0.001,0.187,0.057c0.097,0.096,0.284,0.254,0.447,0.234
			c0.068-0.009,0.124-0.049,0.167-0.121c0.029-0.049,0.049-0.067,0.067-0.059c0.018,0.007,0.061,0.024-0.054,0.646
			c-0.056,0.304-0.124,0.607-0.124,0.61l-0.001,0.003l-0.002,0.002L16.997,13.994z M17.093,11.95c-0.014,0-0.029,0.002-0.043,0.006
			c-0.111,0.03-0.225,0.179-0.27,0.354c-0.037,0.142-0.019,0.263,0.049,0.33c0.178,0.175,0.303,0.395,0.353,0.618
			c0.049,0.22,0.022,0.429-0.078,0.609l0.611-0.571c0.167-0.751,0.228-1.215,0.19-1.231c0,0-0.012-0.001-0.043,0.051
			c-0.046,0.077-0.107,0.121-0.181,0.131c-0.17,0.022-0.364-0.141-0.463-0.239C17.179,11.97,17.137,11.95,17.093,11.95z"/>
	</g>
	<g>
		<path class="st0" d="M1.945,13.926c-0.279-0.408-0.1-0.94,0.243-1.278c0.224-0.221-0.133-0.914-0.403-0.646
			c-0.211,0.209-0.484,0.356-0.629,0.111c-0.218-0.367,0.13,1.19,0.13,1.19L1.945,13.926z"/>
		<path class="st3" d="M2.005,13.996l-0.729-0.69l-0.001-0.003c-0.001-0.003-0.068-0.306-0.124-0.61
			c-0.115-0.622-0.072-0.639-0.054-0.646c0.018-0.007,0.038,0.011,0.067,0.059c0.042,0.072,0.099,0.112,0.167,0.121
			c0.162,0.021,0.35-0.137,0.447-0.234c0.056-0.055,0.121-0.075,0.187-0.057c0.133,0.036,0.244,0.213,0.284,0.368
			c0.039,0.15,0.019,0.277-0.054,0.349c-0.318,0.314-0.53,0.844-0.242,1.265L2.005,13.996z M1.294,13.296l0.602,0.57
			c-0.099-0.179-0.124-0.388-0.073-0.608c0.052-0.222,0.179-0.441,0.357-0.618c0.068-0.067,0.086-0.188,0.049-0.33
			c-0.046-0.175-0.159-0.323-0.27-0.354c-0.06-0.016-0.117,0.001-0.168,0.052c-0.1,0.099-0.293,0.261-0.463,0.239
			c-0.074-0.01-0.135-0.054-0.181-0.131c-0.031-0.053-0.043-0.051-0.043-0.051C1.066,12.081,1.127,12.545,1.294,13.296z"/>
	</g>
</g>
<g>
	<g>
		<path class="st0" d="M17.093,11.96c0.041,0,0.081,0.018,0.118,0.055c0.092,0.091,0.272,0.244,0.439,0.244
			c0.093,0,0.167-0.046,0.221-0.138c0.015-0.026,0.025-0.037,0.031-0.042c0.008,0.027,0.015,0.142-0.077,0.631
			c-0.051,0.272-0.109,0.538-0.119,0.581l-0.567,0.53c0.196-0.416-0.007-0.895-0.304-1.188c-0.06-0.06-0.101-0.202-0.018-0.406
			C16.893,12.043,17.01,11.96,17.093,11.96 M17.093,11.94c-0.237,0-0.46,0.521-0.271,0.707c0.343,0.338,0.514,0.87,0.235,1.278
			l0.668-0.624c0,0,0.278-1.246,0.181-1.246c-0.011,0-0.028,0.017-0.051,0.056c-0.054,0.091-0.125,0.128-0.204,0.128
			c-0.135,0-0.292-0.107-0.425-0.238C17.182,11.959,17.137,11.94,17.093,11.94L17.093,11.94z"/>
	</g>
	<g>
		<path class="st0" d="M1.979,11.871v0.089c0,0,0.168,0.083,0.244,0.267c0.084,0.204,0.027,0.346-0.033,0.405
			c-0.412,0.407-0.458,0.875-0.317,1.189l-0.565-0.531c-0.009-0.043-0.07-0.309-0.121-0.581c-0.091-0.489-0.086-0.604-0.078-0.631
			c0.005,0.005,0.015,0.017,0.03,0.042c0.054,0.091,0.128,0.138,0.221,0.138c0.167,0,0.378-0.153,0.47-0.244
			c0.037-0.036-0.003-0.055,0.149-0.055V11.871 M1.916,11.94c-0.044,0-0.089,0.018-0.132,0.06c-0.133,0.131-0.29,0.238-0.425,0.238
			c-0.079,0-0.15-0.037-0.204-0.128c-0.023-0.039-0.04-0.056-0.051-0.056c-0.097,0,0.181,1.246,0.181,1.246l0.659,0.624
			c-0.279-0.408-0.1-0.94,0.243-1.278C2.376,12.461,2.153,11.941,1.916,11.94L1.916,11.94z"/>
	</g>
</g>
<g>
	<path class="st0" d="M3.988,15.567c-0.145,0.106-0.299,0.218-0.456,0.218c-0.064,0-0.128-0.018-0.192-0.063
		c-0.015-0.011-0.026-0.016-0.033-0.016c-0.089,0,0.564,0.899,0.564,0.899s0.612,0.228,0.764,0.228c0.043,0,0.049-0.019-0.009-0.067
		c-0.259-0.216-0.242-0.525-0.149-0.643C4.57,16.006,3.988,15.567,3.988,15.567L3.988,15.567z"/>
</g>
<g>
	<path class="st0" d="M14.36,16.823c-0.02,0-0.023-0.004-0.024-0.004c0,0-0.002-0.011,0.039-0.045
		c0.269-0.224,0.241-0.541,0.151-0.656c-0.007-0.008-0.009-0.019-0.007-0.033c0.018-0.14,0.434-0.463,0.488-0.505
		c0.139,0.102,0.296,0.216,0.456,0.216c0.07,0,0.135-0.021,0.197-0.065c0.015-0.011,0.023-0.013,0.026-0.014
		c0.008,0.052-0.284,0.489-0.569,0.881C15.072,16.614,14.502,16.823,14.36,16.823z"/>
</g>
<g>
	<path class="st0" d="M15.007,15.591c0.139,0.102,0.295,0.213,0.456,0.213c0.071,0,0.14-0.022,0.203-0.066
		c0.002-0.001,0.004-0.003,0.006-0.004c-0.03,0.082-0.223,0.389-0.561,0.855c-0.062,0.023-0.613,0.224-0.751,0.224
		c-0.004,0-0.007,0-0.01,0c0.004-0.006,0.013-0.016,0.032-0.031c0.152-0.126,0.2-0.271,0.214-0.371
		c0.016-0.116-0.008-0.231-0.062-0.299c-0.005-0.006-0.007-0.015-0.005-0.026C14.543,15.969,14.868,15.698,15.007,15.591
		 M15.007,15.567c0,0-0.581,0.439-0.489,0.557s0.11,0.426-0.149,0.643c-0.058,0.048-0.052,0.067-0.009,0.067
		c0.151,0,0.764-0.228,0.764-0.228s0.653-0.899,0.564-0.899c-0.007,0-0.017,0.005-0.033,0.016c-0.064,0.045-0.128,0.063-0.192,0.063
		C15.306,15.785,15.151,15.673,15.007,15.567L15.007,15.567z"/>
</g>
<g>
	<path class="st0" d="M4.866,13.233c-1.752,0-3.178-1.425-3.178-3.177c0-0.985,0.446-1.899,1.224-2.506l0.277-0.216l1.103,1.098
		c0.452,0.452,1.055,0.7,1.698,0.7h1.943L7.99,9.46c0.037,0.21,0.055,0.398,0.055,0.593C8.044,11.806,6.619,13.233,4.866,13.233z
		 M3.142,8.41C2.72,8.851,2.484,9.434,2.484,10.055c0,1.313,1.069,2.382,2.382,2.382s2.382-1.087,2.382-2.402
		c0-0.042-0.001,0.01-0.003-0.143H5.989c-0.856,0-1.658-0.314-2.26-0.915L3.142,8.41z"/>
</g>
<g>
	<path class="st0" d="M14.134,13.234c-1.752,0-3.178-1.426-3.178-3.178c0-0.202,0.019-0.404,0.057-0.601l0.062-0.323h1.945
		c0.643,0,1.246-0.248,1.697-0.699l1.099-1.097l0.277,0.217c0.775,0.607,1.22,1.52,1.22,2.504
		C17.312,11.809,15.886,13.234,14.134,13.234z M11.755,9.893c-0.002,0.152-0.003,0.103-0.003,0.146c0,1.314,1.069,2.391,2.382,2.391
		s2.382-1.064,2.382-2.378c0-0.62-0.235-1.199-0.656-1.64l-0.582,0.565c-0.601,0.601-1.404,0.916-2.259,0.916H11.755z"/>
</g>
<g>
	<path class="st0" d="M13.019,9.893h-7.03c-0.131,0-0.263,0.009-0.393-0.006C5.57,9.883,5.544,9.888,5.519,9.884
		C5.506,9.883,5.493,9.885,5.48,9.883C5.454,9.879,5.428,9.89,5.403,9.885C5.391,9.883,5.386,9.881,5.374,9.881L5.348,9.875
		c-0.038,0-0.059-0.011-0.099-0.021C5.223,9.849,5.198,9.836,5.173,9.829C5.111,9.813,5.048,9.791,4.986,9.771
		C4.961,9.763,4.935,9.752,4.91,9.743C4.469,9.586,4.06,9.327,3.729,8.996l-0.853-0.85L1.251,6.521l0.563-0.563l1.624,1.624
		l0.853,0.85C4.54,8.681,4.847,8.874,5.179,8.992c0.019,0.007,0.036,0.013,0.054,0.018l0.002,0.001
		c0.046,0.015,0.093,0.029,0.139,0.041c0.019,0.005,0.038,0.01,0.056,0.014l0.003,0.001C5.462,9.074,5.49,9.08,5.516,9.086
		l0.003,0.001c0.008,0.002,0.016,0.003,0.024,0.004l0.004,0.001c0.019,0.004,0.038,0.007,0.057,0.01
		c0.009,0.001,0.018,0.003,0.027,0.004l0.003,0c0.019,0.003,0.038,0.005,0.058,0.008C5.79,9.126,5.89,9.132,5.989,9.132h7.03
		c0.643,0,1.246-0.248,1.697-0.699l0.85-0.848l1.598-1.597l0.563,0.563l-1.598,1.597l-0.851,0.831
		C14.677,9.579,13.874,9.893,13.019,9.893z"/>
</g>
</svg>
