<?xml version="1.0" encoding="utf-8"?>
<!-- Generator: Adobe Illustrator 19.2.1, SVG Export Plug-In . SVG Version: 6.00 Build 0)  -->
<svg version="1.1" id="Layer_1" xmlns="http://www.w3.org/2000/svg" xmlns:xlink="http://www.w3.org/1999/xlink" x="0px" y="0px"
	 viewBox="0 0 18 18" style="enable-background:new 0 0 18 18;" xml:space="preserve">
<style type="text/css">
	.st0{fill:#44C4E2;}
</style>
<path class="st0" d="M9,0C4,0,0,4,0,9s4,9,9,9s9-4,9-9S14,0,9,0z M13.2,6.8c0,0.1,0,0.2,0,0.3c0,2.9-2.2,6.2-6.2,6.2
	c-1.2,0-2.4-0.4-3.3-1c0.2,0,0.3,0,0.5,0c1,0,2-0.3,2.7-0.9c-0.9,0-1.8-0.6-2-1.5c0.1,0,0.3,0,0.4,0c0.2,0,0.4,0,0.6-0.1
	c-1-0.2-1.7-1.1-1.7-2.1c0,0,0,0,0,0C4.4,7.9,4.8,8,5.1,8c-0.6-0.4-1-1.1-1-1.8c0-0.4,0.1-0.8,0.3-1.1c1.1,1.3,2.7,2.2,4.5,2.3
	c0-0.2-0.1-0.3-0.1-0.5c0-1.2,1-2.2,2.2-2.2c0.6,0,1.2,0.3,1.6,0.7c0.5-0.1,1-0.3,1.4-0.5c-0.2,0.5-0.5,0.9-1,1.2
	c0.4-0.1,0.9-0.2,1.2-0.3C14,6.2,13.6,6.5,13.2,6.8z"/>
</svg>
